<?xml version="1.0" standalone="no"?>
<svg
  width="600"
  height="600"
  viewBox="0 0 600 600"
  xmlns="http://www.w3.org/2000/svg"
>
  <g transform="translate(300,300)">
    <path d="M127.8,-202.4C168.7,-172.5,207.2,-142.4,232.1,-101.9C257.1,-61.3,268.6,-10.5,260.1,36.2C251.5,82.9,222.9,125.6,189.1,163C155.4,200.5,116.6,232.6,71.4,248.1C26.3,263.5,-25.2,262.3,-71.3,246.8C-117.3,231.4,-158.1,201.8,-186.4,164.2C-214.7,126.6,-230.6,81,-233.8,35.7C-237.1,-9.6,-227.7,-54.7,-209.6,-96.3C-191.5,-138,-164.7,-176.2,-128.3,-208.1C-91.9,-240,-46,-265.5,-1.3,-263.5C43.4,-261.6,86.9,-232.2,127.8,-202.4Z" fill="#dd0000" />
  </g>
</svg>
  