<?xml version="1.0" standalone="no"?>
<svg
  width="600"
  height="600"
  viewBox="0 0 600 600"
  xmlns="http://www.w3.org/2000/svg"
>
  <g transform="translate(300,300)">
    <path d="M137.5,-203.2C176.9,-188.5,206.7,-148.3,230.5,-103.2C254.3,-58.1,272.2,-8.2,267,39.5C261.9,87.2,233.7,132.6,197.6,167.4C161.6,202.2,117.5,226.3,76.8,218.7C36.1,211.1,-1.4,171.7,-51.2,162.5C-101,153.3,-163.1,174.2,-179.2,155.4C-195.3,136.6,-165.5,78,-149.9,35.5C-134.4,-7.1,-133.1,-33.7,-126.8,-62.1C-120.4,-90.6,-108.8,-121,-86.9,-143.7C-64.9,-166.3,-32.4,-181.1,8.3,-194C49,-206.9,98,-217.9,137.5,-203.2Z" fill="#FFB4BC" />
  </g>
</svg>
  