<?xml version="1.0" standalone="no"?>
<svg
  width="600"
  height="600"
  viewBox="0 0 600 600"
  xmlns="http://www.w3.org/2000/svg"
>
  <g transform="translate(300,300)">
    <path d="M124.9,-194.3C167.9,-166.6,213.1,-142.3,231.3,-104.9C249.4,-67.6,240.5,-17.1,233.9,34.1C227.2,85.3,222.8,137.3,197.6,177.5C172.5,217.6,126.5,246,76.4,261.3C26.2,276.7,-28.2,278.9,-76.2,263.2C-124.3,247.4,-166.1,213.8,-194.2,172.9C-222.4,132.1,-236.9,84.1,-235,39.2C-233.1,-5.8,-214.8,-47.8,-196.3,-90.2C-177.8,-132.7,-159.2,-175.7,-126.5,-208.1C-93.7,-240.5,-46.9,-262.2,-3,-257.6C40.9,-253,81.8,-222,124.9,-194.3Z" fill="#FFB4BC" />
  </g>
</svg>
  