<?xml version="1.0" standalone="no"?>
<svg
  width="600"
  height="600"
  viewBox="0 0 600 600"
  xmlns="http://www.w3.org/2000/svg"
>
  <g transform="translate(300,300)">
    <path d="M119.2,-193.8C156.2,-161.7,189.1,-131.5,211.1,-93.4C233.1,-55.3,244.2,-9.3,235.3,31.9C226.4,73.2,197.5,109.6,167.6,146.8C137.8,184,107.1,222,66.4,240.5C25.7,259.1,-24.9,258.1,-66.3,239.7C-107.8,221.2,-140,185.3,-172.2,148.8C-204.3,112.4,-236.3,75.5,-251.4,30.6C-266.5,-14.3,-264.7,-67.2,-246.7,-115.3C-228.8,-163.3,-194.7,-206.6,-150.9,-235.6C-107,-264.6,-53.5,-279.3,-6.2,-269.6C41.1,-259.9,82.2,-225.9,119.2,-193.8Z" fill="#FFB4BC" />
  </g>
</svg>
  