<?xml version="1.0" standalone="no"?>
<svg
  width="600"
  height="600"
  viewBox="0 0 600 600"
  xmlns="http://www.w3.org/2000/svg"
>
  <g transform="translate(300,300)">
    <path d="M111,-179.9C145.3,-150.8,175.4,-122.3,191.7,-87.4C208,-52.4,210.4,-10.9,206,30.6C201.6,72.1,190.3,113.7,165.6,145.2C140.9,176.7,102.7,198.2,59.2,218.7C15.8,239.2,-33,258.7,-72.4,247C-111.9,235.3,-142.1,192.3,-172.7,152.3C-203.3,112.3,-234.3,75.2,-240.7,34.2C-247.2,-6.7,-229.1,-51.5,-211.4,-99.1C-193.7,-146.7,-176.3,-197,-141.1,-225.8C-106,-254.6,-53,-261.8,-7.3,-250.4C38.4,-239.1,76.8,-209.1,111,-179.9Z" fill="#FFB4BC" />
  </g>
</svg>
  