<?xml version="1.0" standalone="no"?>
<svg
  width="600"
  height="600"
  viewBox="0 0 600 600"
  xmlns="http://www.w3.org/2000/svg"
>
  <g transform="translate(300,300)">
    <path d="M148.3,-222.5C190.6,-203.5,222.2,-159.7,235.3,-112.8C248.4,-65.9,243,-15.9,230.9,29.6C218.8,75.2,200.1,116.2,172.5,151.2C144.9,186.3,108.4,215.5,68.1,223.4C27.9,231.2,-16.1,217.8,-55.2,200.6C-94.4,183.4,-128.8,162.4,-156.9,133.8C-185,105.3,-206.8,69.1,-211.8,30.8C-216.7,-7.4,-204.8,-47.8,-190.4,-90.1C-176,-132.5,-159.1,-176.9,-126.9,-200.5C-94.8,-224.2,-47.4,-227.1,2.8,-231.4C53,-235.8,106,-241.6,148.3,-222.5Z" fill="#FFB4BC" />
  </g>
</svg>
  