<?xml version="1.0" standalone="no"?>
<svg
  width="600"
  height="600"
  viewBox="0 0 600 600"
  xmlns="http://www.w3.org/2000/svg"
>
  <g transform="translate(300,300)">
    <path d="M131.3,-216.8C164.2,-183.2,180.8,-136.7,196.6,-92.6C212.4,-48.5,227.5,-6.8,223.8,33.5C220.1,73.9,197.7,112.9,169.8,149.6C141.9,186.4,108.4,220.8,66.3,239.4C24.1,258.1,-26.7,261,-66.9,242.5C-107.1,223.9,-136.7,184,-168.8,146.5C-200.9,109,-235.6,73.9,-241.4,34.6C-247.2,-4.7,-224.1,-48.3,-203.3,-92.4C-182.5,-136.6,-164,-181.5,-130.5,-214.8C-97,-248.2,-48.5,-270.1,0.4,-270.7C49.2,-271.2,98.4,-250.4,131.3,-216.8Z" fill="#FFB4BC" />
  </g>
</svg>
  